<mxfile host="Electron" agent="Mozilla/5.0 (Windows NT 10.0; Win64; x64) AppleWebKit/537.36 (KHTML, like Gecko) draw.io/26.0.9 Chrome/128.0.6613.186 Electron/32.2.5 Safari/537.36" version="26.0.9">
  <diagram name="Страница — 1" id="n-VvX9zxNpZZz8-I9UuB">
    <mxGraphModel dx="829" dy="491" grid="0" gridSize="10" guides="1" tooltips="1" connect="1" arrows="1" fold="1" page="1" pageScale="1" pageWidth="827" pageHeight="1169" math="0" shadow="0">
      <root>
        <mxCell id="0" />
        <mxCell id="1" parent="0" />
        <mxCell id="EcPtGWszWrDDoraMDC3V-2" value="" style="endArrow=classic;html=1;rounded=0;strokeColor=default;align=center;verticalAlign=middle;fontFamily=Helvetica;fontSize=11;fontColor=default;labelBackgroundColor=default;edgeStyle=orthogonalEdgeStyle;" edge="1" parent="1">
          <mxGeometry width="50" height="50" relative="1" as="geometry">
            <mxPoint x="100" y="530" as="sourcePoint" />
            <mxPoint x="100" y="410" as="targetPoint" />
          </mxGeometry>
        </mxCell>
        <mxCell id="EcPtGWszWrDDoraMDC3V-5" style="edgeStyle=orthogonalEdgeStyle;shape=connector;rounded=0;orthogonalLoop=1;jettySize=auto;html=1;exitX=0.5;exitY=1;exitDx=0;exitDy=0;strokeColor=default;align=center;verticalAlign=middle;fontFamily=Helvetica;fontSize=11;fontColor=default;labelBackgroundColor=default;startFill=0;endArrow=classic;endFill=1;" edge="1" parent="1">
          <mxGeometry relative="1" as="geometry">
            <mxPoint x="100" y="530" as="targetPoint" />
            <Array as="points">
              <mxPoint x="190" y="530" />
            </Array>
            <mxPoint x="190" y="510" as="sourcePoint" />
          </mxGeometry>
        </mxCell>
        <mxCell id="EcPtGWszWrDDoraMDC3V-6" style="edgeStyle=orthogonalEdgeStyle;rounded=0;orthogonalLoop=1;jettySize=auto;html=1;exitX=0.5;exitY=1;exitDx=0;exitDy=0;entryX=0.5;entryY=0;entryDx=0;entryDy=0;endArrow=none;startFill=0;" edge="1" parent="1" source="EcPtGWszWrDDoraMDC3V-7" target="EcPtGWszWrDDoraMDC3V-10">
          <mxGeometry relative="1" as="geometry" />
        </mxCell>
        <mxCell id="EcPtGWszWrDDoraMDC3V-7" value="n, m, matrix" style="shape=parallelogram;perimeter=parallelogramPerimeter;whiteSpace=wrap;html=1;fixedSize=1;" vertex="1" parent="1">
          <mxGeometry x="130" y="80" width="120" height="60" as="geometry" />
        </mxCell>
        <mxCell id="EcPtGWszWrDDoraMDC3V-8" value="начало" style="rounded=1;whiteSpace=wrap;html=1;arcSize=50;" vertex="1" parent="1">
          <mxGeometry x="130" y="40" width="120" height="30" as="geometry" />
        </mxCell>
        <mxCell id="EcPtGWszWrDDoraMDC3V-9" style="edgeStyle=orthogonalEdgeStyle;rounded=0;orthogonalLoop=1;jettySize=auto;html=1;exitX=0.5;exitY=1;exitDx=0;exitDy=0;endArrow=none;startFill=0;" edge="1" parent="1" source="EcPtGWszWrDDoraMDC3V-10" target="EcPtGWszWrDDoraMDC3V-15">
          <mxGeometry relative="1" as="geometry" />
        </mxCell>
        <mxCell id="EcPtGWszWrDDoraMDC3V-10" value="преобразуем строчки матрицы в строковый тип данных" style="rounded=0;whiteSpace=wrap;html=1;" vertex="1" parent="1">
          <mxGeometry x="130" y="150" width="120" height="60" as="geometry" />
        </mxCell>
        <mxCell id="EcPtGWszWrDDoraMDC3V-11" style="edgeStyle=orthogonalEdgeStyle;shape=connector;rounded=0;orthogonalLoop=1;jettySize=auto;html=1;exitX=0.5;exitY=1;exitDx=0;exitDy=0;entryX=0.5;entryY=0;entryDx=0;entryDy=0;strokeColor=default;align=center;verticalAlign=middle;fontFamily=Helvetica;fontSize=11;fontColor=default;labelBackgroundColor=default;startFill=0;endArrow=none;" edge="1" parent="1" source="EcPtGWszWrDDoraMDC3V-13" target="EcPtGWszWrDDoraMDC3V-17">
          <mxGeometry relative="1" as="geometry" />
        </mxCell>
        <mxCell id="EcPtGWszWrDDoraMDC3V-12" style="edgeStyle=orthogonalEdgeStyle;shape=connector;rounded=0;orthogonalLoop=1;jettySize=auto;html=1;exitX=1;exitY=0.5;exitDx=0;exitDy=0;strokeColor=default;align=center;verticalAlign=middle;fontFamily=Helvetica;fontSize=11;fontColor=default;labelBackgroundColor=default;startFill=0;endArrow=none;" edge="1" parent="1">
          <mxGeometry relative="1" as="geometry">
            <mxPoint x="190" y="590" as="targetPoint" />
            <Array as="points">
              <mxPoint x="292" y="330" />
              <mxPoint x="292" y="570" />
              <mxPoint x="190" y="570" />
              <mxPoint x="190" y="590" />
            </Array>
            <mxPoint x="252" y="330" as="sourcePoint" />
          </mxGeometry>
        </mxCell>
        <mxCell id="EcPtGWszWrDDoraMDC3V-13" value="&lt;font&gt;&lt;font face=&quot;Helvetica&quot; style=&quot;background-color: light-dark(rgb(255, 255, 255), rgb(18, 18, 18));&quot;&gt;i := 0, i &lt;/font&gt;&lt;font face=&quot;Helvetica&quot; style=&quot;background-color: rgb(251, 251, 251);&quot;&gt;&amp;lt; rows&lt;/font&gt;&lt;font face=&quot;Helvetica&quot; style=&quot;background-color: light-dark(rgb(255, 255, 255), rgb(18, 18, 18));&quot;&gt;, i:=i+1&lt;/font&gt;&lt;/font&gt;" style="shape=hexagon;perimeter=hexagonPerimeter2;whiteSpace=wrap;html=1;fixedSize=1;" vertex="1" parent="1">
          <mxGeometry x="130" y="300" width="120" height="60" as="geometry" />
        </mxCell>
        <mxCell id="EcPtGWszWrDDoraMDC3V-14" style="edgeStyle=orthogonalEdgeStyle;shape=connector;rounded=0;orthogonalLoop=1;jettySize=auto;html=1;exitX=0.5;exitY=1;exitDx=0;exitDy=0;entryX=0.5;entryY=0;entryDx=0;entryDy=0;strokeColor=default;align=center;verticalAlign=middle;fontFamily=Helvetica;fontSize=11;fontColor=default;labelBackgroundColor=default;startFill=0;endArrow=none;" edge="1" parent="1" source="EcPtGWszWrDDoraMDC3V-15" target="EcPtGWszWrDDoraMDC3V-13">
          <mxGeometry relative="1" as="geometry" />
        </mxCell>
        <mxCell id="EcPtGWszWrDDoraMDC3V-15" value="сортируем массив строк rowsArray по первому элементу" style="rounded=0;whiteSpace=wrap;align=center;" vertex="1" parent="1">
          <mxGeometry x="130" y="220" width="120" height="60" as="geometry" />
        </mxCell>
        <mxCell id="EcPtGWszWrDDoraMDC3V-16" style="edgeStyle=orthogonalEdgeStyle;shape=connector;rounded=0;orthogonalLoop=1;jettySize=auto;html=1;exitX=1;exitY=0.5;exitDx=0;exitDy=0;entryX=0;entryY=0.5;entryDx=0;entryDy=0;strokeColor=default;align=center;verticalAlign=middle;fontFamily=Helvetica;fontSize=11;fontColor=default;labelBackgroundColor=default;startFill=0;endArrow=none;" edge="1" parent="1" source="EcPtGWszWrDDoraMDC3V-17" target="EcPtGWszWrDDoraMDC3V-13">
          <mxGeometry relative="1" as="geometry">
            <Array as="points">
              <mxPoint x="270" y="410" />
              <mxPoint x="270" y="550" />
              <mxPoint x="80" y="550" />
              <mxPoint x="80" y="330" />
            </Array>
          </mxGeometry>
        </mxCell>
        <mxCell id="EcPtGWszWrDDoraMDC3V-17" value="&lt;font&gt;&lt;font face=&quot;Helvetica&quot; style=&quot;background-color: light-dark(rgb(255, 255, 255), rgb(18, 18, 18));&quot;&gt;j := 0, j&amp;nbsp;&lt;/font&gt;&lt;font face=&quot;Helvetica&quot; style=&quot;background-color: rgb(251, 251, 251);&quot;&gt;&amp;lt; cols&lt;/font&gt;&lt;font face=&quot;Helvetica&quot; style=&quot;background-color: light-dark(rgb(255, 255, 255), rgb(18, 18, 18));&quot;&gt;, j:=j+1&lt;/font&gt;&lt;/font&gt;" style="shape=hexagon;perimeter=hexagonPerimeter2;whiteSpace=wrap;html=1;fixedSize=1;" vertex="1" parent="1">
          <mxGeometry x="130" y="380" width="120" height="60" as="geometry" />
        </mxCell>
        <mxCell id="EcPtGWszWrDDoraMDC3V-18" style="edgeStyle=orthogonalEdgeStyle;shape=connector;rounded=0;orthogonalLoop=1;jettySize=auto;html=1;exitX=0.5;exitY=0;exitDx=0;exitDy=0;exitPerimeter=0;entryX=0.5;entryY=1;entryDx=0;entryDy=0;strokeColor=default;align=center;verticalAlign=middle;fontFamily=Helvetica;fontSize=11;fontColor=default;labelBackgroundColor=default;startFill=0;endArrow=none;" edge="1" parent="1" target="EcPtGWszWrDDoraMDC3V-17">
          <mxGeometry relative="1" as="geometry">
            <mxPoint x="190" y="450" as="sourcePoint" />
          </mxGeometry>
        </mxCell>
        <mxCell id="EcPtGWszWrDDoraMDC3V-22" style="edgeStyle=orthogonalEdgeStyle;shape=connector;rounded=0;orthogonalLoop=1;jettySize=auto;html=1;exitX=0.5;exitY=1;exitDx=0;exitDy=0;entryX=0;entryY=0.5;entryDx=0;entryDy=0;strokeColor=default;align=center;verticalAlign=middle;fontFamily=Helvetica;fontSize=11;fontColor=default;labelBackgroundColor=default;startFill=0;endArrow=classic;endFill=1;" edge="1" parent="1" source="EcPtGWszWrDDoraMDC3V-23" target="EcPtGWszWrDDoraMDC3V-17">
          <mxGeometry relative="1" as="geometry">
            <Array as="points">
              <mxPoint x="190" y="530" />
              <mxPoint x="100" y="530" />
              <mxPoint x="100" y="410" />
            </Array>
          </mxGeometry>
        </mxCell>
        <mxCell id="EcPtGWszWrDDoraMDC3V-23" value="&lt;div&gt;matrix[i][j] := rowsArray[i][j]&lt;/div&gt;" style="rounded=0;whiteSpace=wrap;html=1;fontSize=12;" vertex="1" parent="1">
          <mxGeometry x="130" y="450" width="120" height="60" as="geometry" />
        </mxCell>
        <mxCell id="EcPtGWszWrDDoraMDC3V-24" style="edgeStyle=orthogonalEdgeStyle;shape=connector;rounded=0;orthogonalLoop=1;jettySize=auto;html=1;strokeColor=default;align=center;verticalAlign=middle;fontFamily=Helvetica;fontSize=11;fontColor=default;labelBackgroundColor=default;startFill=0;endArrow=classic;endFill=1;" edge="1" parent="1">
          <mxGeometry relative="1" as="geometry">
            <mxPoint x="80" y="550" as="targetPoint" />
            <Array as="points">
              <mxPoint x="200" y="550" />
            </Array>
            <mxPoint x="200" y="550" as="sourcePoint" />
          </mxGeometry>
        </mxCell>
        <mxCell id="EcPtGWszWrDDoraMDC3V-25" style="edgeStyle=orthogonalEdgeStyle;shape=connector;rounded=0;orthogonalLoop=1;jettySize=auto;html=1;strokeColor=default;align=center;verticalAlign=middle;fontFamily=Helvetica;fontSize=11;fontColor=default;labelBackgroundColor=default;startFill=0;endArrow=classic;endFill=1;" edge="1" parent="1">
          <mxGeometry relative="1" as="geometry">
            <mxPoint x="80" y="330" as="targetPoint" />
            <mxPoint x="80" y="490" as="sourcePoint" />
          </mxGeometry>
        </mxCell>
        <mxCell id="EcPtGWszWrDDoraMDC3V-53" value="конец" style="rounded=1;whiteSpace=wrap;html=1;arcSize=50;" vertex="1" parent="1">
          <mxGeometry x="130" y="665" width="120" height="30" as="geometry" />
        </mxCell>
        <mxCell id="EcPtGWszWrDDoraMDC3V-58" style="edgeStyle=orthogonalEdgeStyle;rounded=0;orthogonalLoop=1;jettySize=auto;html=1;exitX=0.5;exitY=1;exitDx=0;exitDy=0;entryX=0.5;entryY=0;entryDx=0;entryDy=0;endArrow=none;startFill=0;" edge="1" parent="1" source="EcPtGWszWrDDoraMDC3V-57" target="EcPtGWszWrDDoraMDC3V-53">
          <mxGeometry relative="1" as="geometry" />
        </mxCell>
        <mxCell id="EcPtGWszWrDDoraMDC3V-57" value="matrix" style="shape=parallelogram;perimeter=parallelogramPerimeter;whiteSpace=wrap;html=1;fixedSize=1;" vertex="1" parent="1">
          <mxGeometry x="130" y="590" width="120" height="60" as="geometry" />
        </mxCell>
      </root>
    </mxGraphModel>
  </diagram>
</mxfile>
